<?xml version="1.0" encoding="utf-8"?>
<!-- Generator: Adobe Illustrator 17.1.0, SVG Export Plug-In . SVG Version: 6.00 Build 0)  -->
<!DOCTYPE svg PUBLIC "-//W3C//DTD SVG 1.1//EN" "http://www.w3.org/Graphics/SVG/1.1/DTD/svg11.dtd">
<svg version="1.1" id="Layer_1" xmlns="http://www.w3.org/2000/svg" xmlns:xlink="http://www.w3.org/1999/xlink" x="0px" y="0px"
	 viewBox="0 0 48 48" enable-background="new 0 0 48 48" xml:space="preserve">
<g>
	<path fill="#263238" d="M37.4,1c0.3,0,0.5,0.1,0.7,0.3l7.8,7.8c0.4,0.4,0.4,1,0,1.4L10.5,45.9c-0.2,0.2-0.4,0.3-0.7,0.3
		s-0.5-0.1-0.7-0.3l-7.8-7.8C1.1,37.9,1,37.7,1,37.4s0.1-0.5,0.3-0.7L36.7,1.3C36.9,1.1,37.1,1,37.4,1 M37.4,0c-0.5,0-1,0.2-1.4,0.6
		L0.6,36c-0.8,0.8-0.8,2.1,0,2.8l7.8,7.8c0.4,0.4,0.9,0.6,1.4,0.6s1-0.2,1.4-0.6l35.4-35.4c0.8-0.8,0.8-2.1,0-2.8l-7.8-7.8
		C38.4,0.2,37.9,0,37.4,0L37.4,0z"/>
</g>
<g>
	
		<rect x="26.2" y="0.8" transform="matrix(0.7071 0.7071 -0.7071 0.7071 26.9383 -10.9792)" fill="#263238" width="1" height="52.5"/>
</g>
<g>
	
		<rect x="31.3" y="6.4" transform="matrix(0.7071 0.7071 -0.7071 0.7071 14.9699 -22.4111)" fill="#263238" width="6.5" height="1"/>
</g>
<g>
	
		<rect x="24.6" y="13.1" transform="matrix(0.7071 0.7071 -0.7071 0.7071 17.7465 -15.708)" fill="#263238" width="6.5" height="1"/>
</g>
<g>
	
		<rect x="17.5" y="20.1" transform="matrix(0.7071 0.7071 -0.7071 0.7071 20.6755 -8.6367)" fill="#263238" width="6.5" height="1"/>
</g>
<g>
	<rect x="10.4" y="27.2" transform="matrix(0.707 0.7072 -0.7072 0.707 23.6074 -1.5649)" fill="#263238" width="6.5" height="1"/>
</g>
<g>
	<rect x="3.4" y="34.3" transform="matrix(0.7071 0.7071 -0.7071 0.7071 26.533 5.5052)" fill="#263238" width="6.5" height="1"/>
</g>
<g>
	<rect x="7.3" y="29.8" transform="matrix(0.7071 0.7071 -0.7071 0.7071 24.1718 2.3413)" fill="#263238" width="4" height="1"/>
</g>
<g>
	<rect x="14.3" y="22.8" transform="matrix(0.7072 0.707 -0.707 0.7072 21.2403 -4.7303)" fill="#263238" width="4" height="1"/>
</g>
<g>
	<rect x="21.4" y="15.7" transform="matrix(0.7072 0.707 -0.707 0.7072 18.3113 -11.8007)" fill="#263238" width="4" height="1"/>
</g>
<g>
	<rect x="28.5" y="8.6" transform="matrix(0.7071 0.7071 -0.7071 0.7071 15.385 -18.8721)" fill="#263238" width="4" height="1"/>
</g>
</svg>
