<?xml version="1.0" encoding="utf-8"?>
<!-- Generator: Adobe Illustrator 17.1.0, SVG Export Plug-In . SVG Version: 6.00 Build 0)  -->
<!DOCTYPE svg PUBLIC "-//W3C//DTD SVG 1.1//EN" "http://www.w3.org/Graphics/SVG/1.1/DTD/svg11.dtd">
<svg version="1.1" id="Layer_1" xmlns="http://www.w3.org/2000/svg" xmlns:xlink="http://www.w3.org/1999/xlink" x="0px" y="0px"
	 viewBox="0 0 48 48" enable-background="new 0 0 48 48" xml:space="preserve">
<g>
	<path fill="#263238" d="M37,17H11c-1.1,0-2,0.9-2,2v10c0,1.1,0.9,2,2,2h26c1.1,0,2-0.9,2-2V19C39,17.9,38.1,17,37,17z M18.5,26.1
		c0,1.1-0.3,1.8-0.8,2.3c-0.5,0.5-1.3,0.7-2.2,0.7c-0.9,0-1.7-0.2-2.2-0.7c-0.6-0.5-0.8-1.1-0.8-1.9c0-0.2,0-0.4,0.1-0.4
		c0.1-0.1,0.2-0.1,0.4-0.1c0.4,0,0.6,0.1,0.6,0.4c0,0.5,0.2,0.9,0.5,1.2c0.3,0.3,0.8,0.5,1.4,0.5c1.2,0,1.8-0.7,1.8-2v-6.2h-1.8
		c-0.1,0-0.2-0.1-0.3-0.2c-0.1-0.1-0.1-0.2-0.1-0.4c0-0.3,0.1-0.5,0.4-0.5H18c0.1,0,0.3,0,0.4,0.1c0.1,0.1,0.2,0.2,0.2,0.3V26.1z
		 M27.2,22c0,1-0.3,1.8-0.8,2.3S25.1,25,24.2,25h-1.9v3.6c0,0.1-0.1,0.2-0.2,0.3c-0.1,0.1-0.3,0.1-0.4,0.1c-0.2,0-0.3,0-0.4-0.1
		c-0.1-0.1-0.2-0.2-0.2-0.3v-9.4c0-0.1,0-0.2,0.1-0.3c0.1-0.1,0.2-0.1,0.3-0.1h2.6c0.9,0,1.6,0.2,2.2,0.7c0.5,0.5,0.8,1.3,0.8,2.3
		V22z M32.5,28.1c0.6,0,1-0.2,1.4-0.5c0.3-0.3,0.5-0.8,0.5-1.5v-1.4h-1.7c-0.1,0-0.2,0-0.3-0.1s-0.1-0.2-0.1-0.3s0-0.2,0.1-0.3
		c0.1-0.1,0.2-0.1,0.3-0.1h2.4c0.1,0,0.2,0,0.3,0.1c0.1,0.1,0.1,0.2,0.1,0.3v2c0,1.1-0.3,1.8-0.8,2.3c-0.6,0.5-1.3,0.7-2.2,0.7
		c-0.9,0-1.6-0.2-2.2-0.7c-0.5-0.5-0.8-1.3-0.8-2.3v-4.2c0-1.1,0.3-1.8,0.8-2.3s1.3-0.7,2.2-0.7c0.9,0,1.7,0.2,2.2,0.7
		c0.6,0.5,0.8,1.1,0.8,1.8c0,0.2,0,0.4-0.1,0.4c-0.1,0.1-0.2,0.1-0.4,0.1c-0.4,0-0.6-0.1-0.6-0.4c-0.1-1.1-0.7-1.6-1.8-1.6
		c-1.2,0-1.8,0.7-1.8,2v4.2C30.7,27.4,31.3,28.1,32.5,28.1z"/>
	<path fill="#263238" d="M24.2,19.9h-1.9V24h1.9c0.6,0,1-0.2,1.4-0.5c0.3-0.3,0.5-0.8,0.5-1.5v-0.2c0-0.7-0.2-1.2-0.5-1.5
		S24.8,19.9,24.2,19.9z"/>
</g>
<g>
	<path fill="#263238" d="M42.7,8.3l-8-8C34.5,0.1,34.3,0,34,0c-0.1,0-0.3,0-0.4,0.1C33.2,0.2,33,0.6,33,1h1l8,8v1
		c0.4,0,0.8-0.2,0.9-0.6S43,8.6,42.7,8.3z"/>
</g>
<g>
	<path fill="#263238" d="M34.4,9C34.2,9,34,8.8,34,8.6V2h-1v6.6c0,0.8,0.6,1.4,1.4,1.4H41V9H34.4z"/>
</g>
<g>
	<path fill="#263238" d="M42,9v36.7c0,0.7-0.6,1.3-1.3,1.3H7.3C6.6,47,6,46.4,6,45.7V2.3C6,1.6,6.6,1,7.3,1H34V0H7.3C6,0,5,1,5,2.3
		v43.4C5,47,6,48,7.3,48h33.4c1.3,0,2.3-1,2.3-2.3V9H42z"/>
</g>
</svg>
