<?xml version="1.0" encoding="utf-8"?>
<!-- Generator: Adobe Illustrator 17.1.0, SVG Export Plug-In . SVG Version: 6.00 Build 0)  -->
<!DOCTYPE svg PUBLIC "-//W3C//DTD SVG 1.1//EN" "http://www.w3.org/Graphics/SVG/1.1/DTD/svg11.dtd">
<svg version="1.1" id="Layer_1" xmlns="http://www.w3.org/2000/svg" xmlns:xlink="http://www.w3.org/1999/xlink" x="0px" y="0px"
	 viewBox="0 0 48 48" enable-background="new 0 0 48 48" xml:space="preserve">
<path fill="#FFFFFF" d="M24,13c6.1,0,11,4.9,11,11s-4.9,11-11,11s-11-4.9-11-11S17.9,13,24,13 M24,12c-6.6,0-12,5.4-12,12
	s5.4,12,12,12s12-5.4,12-12S30.6,12,24,12L24,12z"/>
<g>
	<path fill="#FFFFFF" d="M24,32c-1.1,0-2.6-0.4-2.6-2c0-0.6,0.2-1.2,0.5-2.1l1.7-4.3c0.3-0.7,0.6-1.7,0.6-2c0-0.7-0.4-1-0.8-1
		c-1.2,0-1.9,1.3-2.7,3.4l-0.5-0.2c0.9-2.2,1.8-3.9,3.6-3.9c1.1,0,2.5,0.7,2.5,2.2c0,0.6-0.5,1.8-0.8,2.6L24,28.5
		c-0.4,0.9-0.6,1.6-0.6,2c0,0.8,0.5,0.9,0.9,0.9c1.2,0,2-1.2,2.8-3.4l0.5,0.2C26.7,30.4,25.8,32,24,32z M26.3,19.2
		c-0.8,0-1.3-0.6-1.3-1.4c0-1,0.7-1.8,1.7-1.8c0.7,0,1.2,0.7,1.2,1.4C27.9,18.4,27.3,19.2,26.3,19.2z"/>
</g>
</svg>
