<?xml version="1.0" encoding="utf-8"?>
<!-- Generator: Adobe Illustrator 17.1.0, SVG Export Plug-In . SVG Version: 6.00 Build 0)  -->
<!DOCTYPE svg PUBLIC "-//W3C//DTD SVG 1.1//EN" "http://www.w3.org/Graphics/SVG/1.1/DTD/svg11.dtd">
<svg version="1.1" id="Camada_1" xmlns="http://www.w3.org/2000/svg" xmlns:xlink="http://www.w3.org/1999/xlink" x="0px" y="0px"
	 viewBox="0 0 50 103" enable-background="new 0 0 50 103" xml:space="preserve">
<g>
	<path fill="#FFFFFF" d="M10.6,10.3h4.3c2.2,0,3.6,0.4,3.6,2.9v6.5c0,1.9-0.8,2.6-2.6,2.8v0.1c1.6,0.1,2.6,0.6,2.6,2.4v7.9
		c0,2.5-1.4,2.9-3.7,2.9h-4.3V10.3z M14.6,21.5c1.1,0,1.7-0.3,1.7-1.8v-5.6c0-1.5-0.8-1.7-1.9-1.7h-1.3v9.2L14.6,21.5L14.6,21.5z
		 M14.4,33.7c1.2,0,1.9-0.3,1.9-1.7V25c0-1.2-0.8-1.5-1.8-1.5h-1.5v10.2H14.4z"/>
	<path fill="#FFFFFF" d="M27.8,25c0-1.2-0.8-1.5-1.8-1.5h-1.5v12.2h-2.3V10.2h4.3c2.2,0,3.6,0.4,3.6,2.9v6.5c0,1.9-0.8,2.6-2.6,2.8
		v0.1c1.7,0.1,2.6,0.6,2.6,2.4v10.9h-2.3L27.8,25L27.8,25z M25.9,21.5c1.1,0,1.7-0.3,1.7-1.8v-5.6c0-1.5-0.8-1.7-1.9-1.7h-1.3v9.2
		L25.9,21.5L25.9,21.5z"/>
	<path fill="#FFFFFF" d="M33.8,10.3H40v1.9h-3.9v9.2h3.7v1.9h-3.7v10.2h3.8v1.9h-6.2L33.8,10.3L33.8,10.3z"/>
	<path fill="#FFFFFF" d="M16.7,57.1h-4.1l-1,7H9.4l3.7-25.4h3.2l3.7,25.4h-2.3L16.7,57.1z M14.8,40.5L14.8,40.5L13,55.1h3.6
		L14.8,40.5z"/>
	<path fill="#FFFFFF" d="M27.8,38.7h2.3l-3.7,11.6l3.9,13.8H28l-3.4-12.7h-0.1v12.7h-2.3V38.7h2.3v10.9h0.1L27.8,38.7z"/>
	<path fill="#AEFFE0" d="M38.3,42.2c0-1-0.3-1.7-1.3-1.7c-1.1,0-1.3,0.8-1.3,1.7v2.6c0,0.8,0.1,1.6,0.6,2.3l3.7,6.3
		c0.6,0.9,0.8,1.9,0.8,3.1v4c0,2.4-1.4,3.8-3.7,3.8c-2.6,0-3.8-1.2-3.8-3.8v-3.5h2.3v3.3c0,1.2,0.5,1.9,1.5,1.9s1.4-0.7,1.4-1.9
		v-3.5c0-0.9-0.2-1.5-0.7-2.4l-3.4-6c-0.6-1.1-1-1.9-1-3.3v-3.1c0-2.5,1.3-3.8,3.7-3.8c2.6,0,3.7,1.2,3.7,3.5v3.3h-2.3V42.2z"/>
	<path fill="#AEFFE0" d="M16.4,67.1h2.4v25.4h-2.3V80.3h-3.5v12.2h-2.3V67.1h2.3v11.3h3.5V67.1H16.4z"/>
	<path fill="#AEFFE0" d="M22.2,71.2c0-2.5,1-4.3,4.1-4.3s4.1,1.8,4.1,4.3v17.2c0,2.5-1,4.3-4.1,4.3s-4.1-1.8-4.1-4.3V71.2z
		 M24.4,88.3c0,1.4,0.3,2.4,1.7,2.4c1.5,0,1.7-1,1.7-2.4V71.2c0-1.4-0.3-2.4-1.7-2.4c-1.5,0-1.7,1-1.7,2.4V88.3z"/>
	<path fill="#AEFFE0" d="M35.7,69.1h-2.6v-1.9h7.5v1.9h-2.6v23.4h-2.3L35.7,69.1L35.7,69.1z"/>
	<rect x="11.9" y="100.1" fill="#AEFFE0" width="4.9" height="2.1"/>
	<rect x="19" y="100.1" fill="#AEFFE0" width="4.9" height="2.1"/>
	<rect x="33.3" y="100.1" fill="#AEFFE0" width="4.9" height="2.1"/>
	<rect x="26.1" y="100.1" fill="#AEFFE0" width="4.9" height="2.1"/>
	<rect x="11.9" y="0.8" fill="#AEFFE0" width="4.9" height="2.1"/>
	<rect x="19" y="0.8" fill="#AEFFE0" width="4.9" height="2.1"/>
	<rect x="33.3" y="0.8" fill="#AEFFE0" width="4.9" height="2.1"/>
	<rect x="26.1" y="0.8" fill="#AEFFE0" width="4.9" height="2.1"/>
	<rect x="0.7" y="12.3" fill="#AEFFE0" width="2.1" height="4.9"/>
	<rect x="0.7" y="19.6" fill="#AEFFE0" width="2.1" height="4.9"/>
	<rect x="0.7" y="27" fill="#AEFFE0" width="2.1" height="4.9"/>
	<rect x="0.7" y="34.3" fill="#AEFFE0" width="2.1" height="4.9"/>
	<rect x="0.7" y="41.7" fill="#AEFFE0" width="2.1" height="4.9"/>
	<rect x="0.7" y="49.1" fill="#AEFFE0" width="2.1" height="4.9"/>
	<rect x="0.7" y="56.4" fill="#AEFFE0" width="2.1" height="4.9"/>
	<rect x="0.7" y="63.8" fill="#AEFFE0" width="2.1" height="4.9"/>
	<rect x="0.7" y="71.2" fill="#AEFFE0" width="2.1" height="4.9"/>
	<rect x="0.7" y="85.9" fill="#AEFFE0" width="2.1" height="4.9"/>
	<rect x="0.7" y="78.5" fill="#AEFFE0" width="2.1" height="4.9"/>
	<rect x="47.2" y="12.3" fill="#AEFFE0" width="2.1" height="4.9"/>
	<rect x="47.2" y="19.7" fill="#AEFFE0" width="2.1" height="4.9"/>
	<rect x="47.2" y="27" fill="#AEFFE0" width="2.1" height="4.9"/>
	<rect x="47.2" y="34.3" fill="#AEFFE0" width="2.1" height="4.9"/>
	<rect x="47.2" y="41.7" fill="#AEFFE0" width="2.1" height="4.9"/>
	<rect x="47.2" y="49.1" fill="#AEFFE0" width="2.1" height="4.9"/>
	<rect x="47.2" y="56.4" fill="#AEFFE0" width="2.1" height="4.9"/>
	<rect x="47.2" y="63.8" fill="#AEFFE0" width="2.1" height="4.9"/>
	<rect x="47.2" y="71.2" fill="#AEFFE0" width="2.1" height="4.9"/>
	<rect x="47.2" y="85.8" fill="#AEFFE0" width="2.1" height="4.9"/>
	<rect x="47.2" y="78.4" fill="#AEFFE0" width="2.1" height="4.9"/>
	<path fill="#AEFFE0" d="M2.4,0.1C1,0.1,0,1.2,0,2.5v7.4h2.8V2.9h6.9V0.1H2.4z"/>
	<path fill="#AEFFE0" d="M2.4,102.9c-1.3,0-2.4-1-2.4-2.4v-7.4h2.8v6.9h6.9v2.8H2.4z"/>
	<path fill="#AEFFE0" d="M47.6,0.1c1.3,0,2.4,1,2.4,2.4v7.4h-2.8V2.9h-6.9V0.1H47.6z"/>
	<path fill="#AEFFE0" d="M47.6,102.9c1.3,0,2.4-1,2.4-2.4v-7.4h-2.8v6.9h-6.9v2.8H47.6z"/>
</g>
</svg>
