<?xml version="1.0" encoding="utf-8"?>
<!-- Generator: Adobe Illustrator 17.1.0, SVG Export Plug-In . SVG Version: 6.00 Build 0)  -->
<!DOCTYPE svg PUBLIC "-//W3C//DTD SVG 1.1//EN" "http://www.w3.org/Graphics/SVG/1.1/DTD/svg11.dtd">
<svg version="1.1" id="Layer_1" xmlns="http://www.w3.org/2000/svg" xmlns:xlink="http://www.w3.org/1999/xlink" x="0px" y="0px"
	 viewBox="0 0 48 48" enable-background="new 0 0 48 48" xml:space="preserve">
<g>
	<path fill="#AEFFE0" d="M24,14c3.5,0,12.9,1,23,10c-10.2,9-19.5,10-23,10C13.4,34,4.4,27,1,24C4.4,21,13.4,14,24,14 M24,13
		C13.1,13,3.8,20.2,0.3,23.3C0.1,23.4,0,23.7,0,24c0,0.3,0.1,0.6,0.3,0.7C3.8,27.8,13.1,35,24,35c3.6,0,13.3-1,23.7-10.3
		c0.2-0.2,0.3-0.5,0.3-0.7s-0.1-0.6-0.3-0.7C37.2,14,27.6,13,24,13L24,13z"/>
</g>
<g>
	<path fill="#AEFFE0" d="M24,14c5,0,9,4,9,9s-4,9-9,9s-9-4-9-9S19,14,24,14 M24,13c-5.5,0-10,4.5-10,10s4.5,10,10,10s10-4.5,10-10
		S29.5,13,24,13L24,13z"/>
</g>
<g>
	<path fill="#AEFFE0" d="M27.5,21.6c-0.4-0.9-1.1-1.6-2-2l2.1-5.1c2.3,0.9,4.1,2.7,5,5L27.5,21.6z"/>
</g>
<g>
	<path fill="#AEFFE0" d="M24,19.3c2,0,3.7,1.6,3.7,3.7S26,26.7,24,26.7S20.3,25,20.3,23S22,19.3,24,19.3 M24,18.3
		c-2.6,0-4.7,2.1-4.7,4.7s2.1,4.7,4.7,4.7s4.7-2.1,4.7-4.7S26.6,18.3,24,18.3L24,18.3z"/>
</g>
</svg>
