<?xml version="1.0" encoding="utf-8"?>
<!-- Generator: Adobe Illustrator 17.1.0, SVG Export Plug-In . SVG Version: 6.00 Build 0)  -->
<!DOCTYPE svg PUBLIC "-//W3C//DTD SVG 1.1//EN" "http://www.w3.org/Graphics/SVG/1.1/DTD/svg11.dtd">
<svg version="1.1" id="Layer_1" xmlns="http://www.w3.org/2000/svg" xmlns:xlink="http://www.w3.org/1999/xlink" x="0px" y="0px"
	 viewBox="0 0 48 48" enable-background="new 0 0 48 48" xml:space="preserve">
<g>
	<rect x="24" y="1" fill="#263238" width="2" height="2"/>
</g>
<g>
	<rect x="22" y="3" fill="#263238" width="2" height="2"/>
</g>
<g>
	<rect x="24" y="5" fill="#263238" width="2" height="2"/>
</g>
<g>
	<rect x="22" y="7" fill="#263238" width="2" height="2"/>
</g>
<g>
	<rect x="24" y="9" fill="#263238" width="2" height="2"/>
</g>
<g>
	<rect x="22" y="11" fill="#263238" width="2" height="2"/>
</g>
<g>
	<rect x="24" y="13" fill="#263238" width="2" height="2"/>
</g>
<g>
	<rect x="22" y="15" fill="#263238" width="2" height="2"/>
</g>
<g>
	<rect x="24" y="17" fill="#263238" width="2" height="2"/>
</g>
<g>
	<rect x="22" y="19" fill="#263238" width="2" height="2"/>
</g>
<path fill="#263238" d="M26.1,22.5c0-0.3-0.3-0.5-0.6-0.5H25v3h-2v-3h-0.5c-0.3,0-0.5,0.2-0.6,0.5l-0.9,6c0,0.3,0.2,0.5,0.4,0.5h5
	c0.3,0,0.5-0.2,0.4-0.5L26.1,22.5z"/>
<g>
	<path fill="#263238" d="M42.7,8.3l-8-8C34.5,0.1,34.3,0,34,0c-0.1,0-0.3,0-0.4,0.1C33.2,0.2,33,0.6,33,1h1l8,8v1
		c0.4,0,0.8-0.2,0.9-0.6S43,8.6,42.7,8.3z"/>
</g>
<g>
	<path fill="#263238" d="M34.4,9C34.2,9,34,8.8,34,8.6V2h-1v6.6c0,0.8,0.6,1.4,1.4,1.4H41V9H34.4z"/>
</g>
<g>
	<path fill="#263238" d="M42,9v36.7c0,0.7-0.6,1.3-1.3,1.3H7.3C6.6,47,6,46.4,6,45.7V2.3C6,1.6,6.6,1,7.3,1H34V0H7.3C6,0,5,1,5,2.3
		v43.4C5,47,6,48,7.3,48h33.4c1.3,0,2.3-1,2.3-2.3V9H42z"/>
</g>
</svg>
