<?xml version="1.0" encoding="utf-8"?>
<!-- Generator: Adobe Illustrator 17.1.0, SVG Export Plug-In . SVG Version: 6.00 Build 0)  -->
<!DOCTYPE svg PUBLIC "-//W3C//DTD SVG 1.1//EN" "http://www.w3.org/Graphics/SVG/1.1/DTD/svg11.dtd">
<svg version="1.1" id="Layer_1" xmlns="http://www.w3.org/2000/svg" xmlns:xlink="http://www.w3.org/1999/xlink" x="0px" y="0px"
	 viewBox="0 0 48 48" enable-background="new 0 0 48 48" xml:space="preserve">
<g>
	<g>
		<path fill="#AEFFE0" d="M25.5,24.5c-2.2,0-4-1.8-4-4s1.8-4,4-4s4,1.8,4,4S27.7,24.5,25.5,24.5z M25.5,17.5c-1.7,0-3,1.3-3,3
			s1.3,3,3,3s3-1.3,3-3S27.2,17.5,25.5,17.5z"/>
	</g>
</g>
<g>
	<path fill="#AEFFE0" d="M12.9,38.1l-0.7-0.7l7.8-7.8c0.1-0.1,0.2-0.1,0.4-0.1l0,0c0.1,0,0.3,0.1,0.4,0.1l4.4,4.4l12.5-12.5
		c0.2-0.2,0.5-0.2,0.7,0l9.7,9.7l-0.7,0.7l-9.3-9.3L25.4,35c-0.1,0.1-0.2,0.1-0.4,0.1l0,0c-0.1,0-0.3-0.1-0.4-0.1l-4.4-4.4
		L12.9,38.1z"/>
</g>
<g>
	<path fill="#AEFFE0" d="M46,13c0.6,0,1,0.4,1,1v32c0,0.6-0.4,1-1,1H14c-0.6,0-1-0.4-1-1V14c0-0.6,0.4-1,1-1H46 M46,12H14
		c-1.1,0-2,0.9-2,2v32c0,1.1,0.9,2,2,2h32c1.1,0,2-0.9,2-2V14C48,12.9,47.1,12,46,12L46,12z"/>
</g>
<g>
	<path fill="#AEFFE0" d="M11,41H8c-0.6,0-1-0.4-1-1V8c0-0.6,0.4-1,1-1h32c0.6,0,1,0.4,1,1v3h1V8c0-1.1-0.9-2-2-2H8C6.9,6,6,6.9,6,8
		v32c0,1.1,0.9,2,2,2h3V41z"/>
</g>
<g>
	<path fill="#AEFFE0" d="M5,35H2c-0.6,0-1-0.4-1-1V2c0-0.6,0.4-1,1-1h32c0.6,0,1,0.4,1,1v3h1V2c0-1.1-0.9-2-2-2H2C0.9,0,0,0.9,0,2
		v32c0,1.1,0.9,2,2,2h3V35z"/>
</g>
</svg>
