<?xml version="1.0" encoding="utf-8"?>
<!-- Generator: Adobe Illustrator 17.1.0, SVG Export Plug-In . SVG Version: 6.00 Build 0)  -->
<!DOCTYPE svg PUBLIC "-//W3C//DTD SVG 1.1//EN" "http://www.w3.org/Graphics/SVG/1.1/DTD/svg11.dtd">
<svg version="1.1" id="Layer_1" xmlns="http://www.w3.org/2000/svg" xmlns:xlink="http://www.w3.org/1999/xlink" x="0px" y="0px"
	 viewBox="0 0 48 48" enable-background="new 0 0 48 48" xml:space="preserve">
<g>
	<path fill="#AEFFE0" d="M24,36c-1.6,0-4-0.6-4-3c0-0.9,0.3-1.8,0.8-3.2l2.6-6.5c0.4-1.1,0.9-2.6,0.9-3c0-1.1-0.5-1.4-1.3-1.4
		c-1.8,0-2.9,1.9-4.1,5.1l-0.7-0.3c1.4-3.4,2.7-5.8,5.4-5.8c1.6,0,3.8,1,3.8,3.2c0,0.9-0.7,2.7-1.2,3.8L24,30.7
		c-0.5,1.3-0.9,2.4-0.9,3c0,1.2,0.7,1.3,1.4,1.3c1.8,0,3-1.8,4.2-5l0.7,0.2C28,33.6,26.7,36,24,36z M27.4,16.8c-1.3,0-1.9-1-1.9-2.1
		c0-1.4,1-2.7,2.6-2.7c1.1,0,1.8,1,1.8,2.1C29.9,15.5,29,16.8,27.4,16.8z"/>
</g>
<path fill="#AEFFE0" d="M24,1c12.7,0,23,10.3,23,23S36.7,47,24,47S1,36.7,1,24S11.3,1,24,1 M24,0C10.7,0,0,10.7,0,24s10.7,24,24,24
	s24-10.7,24-24S37.3,0,24,0L24,0z"/>
</svg>
