<?xml version="1.0" encoding="utf-8"?>
<!-- Generator: Adobe Illustrator 17.1.0, SVG Export Plug-In . SVG Version: 6.00 Build 0)  -->
<!DOCTYPE svg PUBLIC "-//W3C//DTD SVG 1.1//EN" "http://www.w3.org/Graphics/SVG/1.1/DTD/svg11.dtd">
<svg version="1.1" id="Layer_1" xmlns="http://www.w3.org/2000/svg" xmlns:xlink="http://www.w3.org/1999/xlink" x="0px" y="0px"
	 viewBox="0 0 48 48" enable-background="new 0 0 48 48" xml:space="preserve">
<g>
	<path fill="#AEFFE0" d="M46,13c0.6,0,1,0.4,1,1v32c0,0.6-0.4,1-1,1H14c-0.6,0-1-0.4-1-1V14c0-0.6,0.4-1,1-1H46 M46,12H14
		c-1.1,0-2,0.9-2,2v32c0,1.1,0.9,2,2,2h32c1.1,0,2-0.9,2-2V14C48,12.9,47.1,12,46,12L46,12z"/>
</g>
<g>
	<g>
		<rect x="12" y="20" fill="#AEFFE0" width="36" height="1"/>
	</g>
</g>
<g>
	<circle fill="#AEFFE0" cx="16.5" cy="16.5" r="1.5"/>
</g>
<g>
	<circle fill="#AEFFE0" cx="20.5" cy="16.5" r="1.5"/>
</g>
<g>
	<circle fill="#AEFFE0" cx="24.5" cy="16.5" r="1.5"/>
</g>
<g>
	<g>
		<g>
			<rect x="12" fill="#AEFFE0" width="36" height="1"/>
		</g>
	</g>
	<g>
		<g>
			<rect x="41" fill="#AEFFE0" width="1" height="5"/>
		</g>
	</g>
	<g>
		<g>
			<rect x="47" y="1" fill="#AEFFE0" width="1" height="2"/>
		</g>
	</g>
	<g>
		<g>
			<rect x="29" fill="#AEFFE0" width="1" height="5"/>
		</g>
	</g>
	<g>
		<g>
			<rect x="35" y="1" fill="#AEFFE0" width="1" height="2"/>
		</g>
	</g>
	<g>
		<g>
			<rect x="17" fill="#AEFFE0" width="1" height="5"/>
		</g>
	</g>
	<g>
		<g>
			<rect x="23" y="1" fill="#AEFFE0" width="1" height="2"/>
		</g>
	</g>
	<g>
		<g>
			<rect x="12" y="1" fill="#AEFFE0" width="1" height="2"/>
		</g>
	</g>
</g>
<g>
	<g>
		<g>
			<rect y="12" fill="#AEFFE0" width="1" height="36"/>
		</g>
	</g>
	<g>
		<g>
			<rect y="17" fill="#AEFFE0" width="5" height="1"/>
		</g>
	</g>
	<g>
		<g>
			<rect x="1" y="12" fill="#AEFFE0" width="2" height="1"/>
		</g>
	</g>
	<g>
		<g>
			<rect y="29" fill="#AEFFE0" width="5" height="1"/>
		</g>
	</g>
	<g>
		<g>
			<rect x="1" y="23" fill="#AEFFE0" width="2" height="1"/>
		</g>
	</g>
	<g>
		<g>
			<rect y="41" fill="#AEFFE0" width="5" height="1"/>
		</g>
	</g>
	<g>
		<g>
			<rect x="1" y="35" fill="#AEFFE0" width="2" height="1"/>
		</g>
	</g>
	<g>
		<g>
			<rect x="1" y="47" fill="#AEFFE0" width="2" height="1"/>
		</g>
	</g>
</g>
</svg>
