<?xml version="1.0" encoding="utf-8"?>
<!-- Generator: Adobe Illustrator 17.1.0, SVG Export Plug-In . SVG Version: 6.00 Build 0)  -->
<!DOCTYPE svg PUBLIC "-//W3C//DTD SVG 1.1//EN" "http://www.w3.org/Graphics/SVG/1.1/DTD/svg11.dtd">
<svg version="1.1" id="Layer_1" xmlns="http://www.w3.org/2000/svg" xmlns:xlink="http://www.w3.org/1999/xlink" x="0px" y="0px"
	 viewBox="0 0 48 48" enable-background="new 0 0 48 48" xml:space="preserve">
<g>
	<g>
		<rect y="8" fill="#FFFFFF" width="39" height="1"/>
	</g>
</g>
<g>
	<circle fill="#FFFFFF" cx="3.5" cy="4.5" r="1.5"/>
</g>
<g>
	<circle fill="#FFFFFF" cx="7.5" cy="4.5" r="1.5"/>
</g>
<g>
	<circle fill="#FFFFFF" cx="11.5" cy="4.5" r="1.5"/>
</g>
<g>
	<path fill="#FFFFFF" d="M19,35H2c-0.6,0-1-0.4-1-1V2c0-0.6,0.4-1,1-1h35c0.6,0,1,0.4,1,1v9h1V2c0-1.1-0.9-2-2-2H2C0.9,0,0,0.9,0,2
		v32c0,1.1,0.9,2,2,2h17V35z"/>
</g>
<g>
	<path fill="#FFFFFF" d="M47.7,20.3l-8-8C39.5,12.1,39.3,12,39,12c-0.1,0-0.3,0-0.4,0.1C38.2,12.2,38,12.6,38,13h1l8,8v1
		c0.4,0,0.8-0.2,0.9-0.6S48,20.6,47.7,20.3z"/>
</g>
<g>
	<path fill="#FFFFFF" d="M39.4,21c-0.2,0-0.4-0.2-0.4-0.4V14h-1v6.6c0,0.8,0.6,1.4,1.4,1.4H46v-1H39.4z"/>
</g>
<g>
	<path fill="#FFFFFF" d="M47,21v24.7c0,0.7-0.6,1.3-1.3,1.3H22.3c-0.7,0-1.3-0.6-1.3-1.3V14.3c0-0.7,0.6-1.3,1.3-1.3H39v-1H22.3
		C21,12,20,13,20,14.3v31.4c0,1.3,1,2.3,2.3,2.3h23.4c1.3,0,2.3-1,2.3-2.3V21H47z"/>
</g>
</svg>
