<?xml version="1.0" encoding="utf-8"?>
<!-- Generator: Adobe Illustrator 17.1.0, SVG Export Plug-In . SVG Version: 6.00 Build 0)  -->
<!DOCTYPE svg PUBLIC "-//W3C//DTD SVG 1.1//EN" "http://www.w3.org/Graphics/SVG/1.1/DTD/svg11.dtd">
<svg version="1.1" id="Layer_1" xmlns="http://www.w3.org/2000/svg" xmlns:xlink="http://www.w3.org/1999/xlink" x="0px" y="0px"
	 viewBox="0 0 48 48" enable-background="new 0 0 48 48" xml:space="preserve">
<g>
	<path fill="#263238" d="M46,1c0.6,0,1,0.4,1,1v44c0,0.6-0.4,1-1,1H2c-0.6,0-1-0.4-1-1V2c0-0.6,0.4-1,1-1H46 M46,0H2
		C0.9,0,0,0.9,0,2v44c0,1.1,0.9,2,2,2h44c1.1,0,2-0.9,2-2V2C48,0.9,47.1,0,46,0L46,0z"/>
</g>
<g>
	<g>
		<rect y="8" fill="#263238" width="48" height="1"/>
	</g>
</g>
<g>
	<circle fill="#263238" cx="4.5" cy="4.5" r="1.5"/>
</g>
<g>
	<circle fill="#263238" cx="8.5" cy="4.5" r="1.5"/>
</g>
<g>
	<circle fill="#263238" cx="12.5" cy="4.5" r="1.5"/>
</g>
<g>
	<path fill="#263238" d="M25.8,21.7c0-1.2-0.6-1.8-1.9-1.8h-1.8v3.7h1.8C25.2,23.5,25.8,22.9,25.8,21.7z"/>
	<path fill="#263238" d="M37,17H11c-1.1,0-2,0.9-2,2v10c0,1.1,0.9,2,2,2h26c1.1,0,2-0.9,2-2V19C39,17.9,38.1,17,37,17z M19.1,26
		c0,1.1-0.3,1.8-0.8,2.3c-0.6,0.5-1.3,0.7-2.2,0.7s-1.7-0.2-2.2-0.7C13.3,27.9,13,27.1,13,26v-6.9c0-0.1,0.1-0.2,0.2-0.3
		c0.1-0.1,0.3-0.1,0.4-0.1c0.2,0,0.3,0,0.4,0.1c0.1,0.1,0.2,0.2,0.2,0.3V26c0,1.3,0.6,2,1.9,2c0.6,0,1.1-0.2,1.4-0.5
		c0.3-0.3,0.5-0.8,0.5-1.5v-6.9c0-0.3,0.2-0.4,0.6-0.4c0.2,0,0.3,0,0.4,0.1c0.1,0.1,0.2,0.2,0.2,0.3V26z M26.8,28.8
		C26.7,29,26.5,29,26.4,29c-0.2,0-0.4-0.2-0.5-0.5l-2.1-4.1h-1.6v4.1c0,0.1-0.1,0.2-0.2,0.3C21.8,29,21.7,29,21.5,29
		c-0.2,0-0.3,0-0.4-0.1c-0.1-0.1-0.2-0.2-0.2-0.3v-9.4c0-0.1,0-0.2,0.1-0.3c0.1-0.1,0.2-0.1,0.3-0.1h2.6c0.9,0,1.7,0.2,2.3,0.7
		c0.6,0.4,0.9,1.2,0.9,2.1c0,1.5-0.7,2.4-2.1,2.7l2.1,3.9c0,0.1,0.1,0.1,0.1,0.2C27.1,28.6,27,28.7,26.8,28.8z M34.9,28.8
		c-0.1,0.1-0.2,0.2-0.3,0.2h-4.5c-0.1,0-0.3,0-0.4-0.1c-0.1-0.1-0.2-0.2-0.2-0.3v-9.4c0-0.1,0.1-0.2,0.2-0.3
		c0.1-0.1,0.3-0.1,0.4-0.1c0.2,0,0.3,0,0.4,0.1c0.1,0.1,0.2,0.2,0.2,0.3v8.8h3.8c0.1,0,0.2,0.1,0.3,0.2c0.1,0.1,0.1,0.2,0.1,0.4
		C35,28.6,35,28.7,34.9,28.8z"/>
</g>
</svg>
