<?xml version="1.0" encoding="utf-8"?>
<!-- Generator: Adobe Illustrator 17.1.0, SVG Export Plug-In . SVG Version: 6.00 Build 0)  -->
<!DOCTYPE svg PUBLIC "-//W3C//DTD SVG 1.1//EN" "http://www.w3.org/Graphics/SVG/1.1/DTD/svg11.dtd">
<svg version="1.1" id="Layer_1" xmlns="http://www.w3.org/2000/svg" xmlns:xlink="http://www.w3.org/1999/xlink" x="0px" y="0px"
	 viewBox="0 0 48 48" enable-background="new 0 0 48 48" xml:space="preserve">
<g>
	<path fill="#263238" d="M36.8,9.5c0.3,0,0.5,0.1,0.7,0.3l0.7,0.7c0.2,0.2,0.3,0.4,0.3,0.7c0,0.3-0.1,0.5-0.3,0.7L4.3,45.9
		c-0.2,0.2-0.4,0.3-0.7,0.3c-0.3,0-0.5-0.1-0.7-0.3l-0.7-0.7C2,45,1.9,44.7,1.9,44.5c0-0.3,0.1-0.5,0.3-0.7L36.1,9.8
		C36.3,9.6,36.5,9.5,36.8,9.5 M36.8,8.5c-0.5,0-1,0.2-1.4,0.6L1.5,43.1c-0.8,0.8-0.8,2.1,0,2.8l0.7,0.7c0.4,0.4,0.9,0.6,1.4,0.6
		c0.5,0,1-0.2,1.4-0.6l33.9-33.9c0.8-0.8,0.8-2.1,0-2.8l-0.7-0.7C37.8,8.7,37.3,8.5,36.8,8.5L36.8,8.5z"/>
</g>
<g>
	<rect x="26" y="19" transform="matrix(0.707 0.7072 -0.7072 0.707 22.1567 -14.4718)" fill="#263238" width="5" height="1"/>
</g>
<g>
	<path fill="#263238" d="M48,18.5c-3,0-4.4,1.5-4.4,4.4c0-3-1.5-4.4-4.4-4.4c3,0,4.4-1.5,4.4-4.4C43.6,17,45,18.5,48,18.5z"/>
</g>
<g>
	<path fill="#263238" d="M41,8.9c-3-3-5.9-3-8.9,0c3-3,3-5.9,0-8.9c3,3,5.9,3,8.9,0C38,3,38,5.9,41,8.9z"/>
</g>
<g>
	<path fill="#263238" d="M41.4,23.6c-2,0-3,1-3,3c0-2-1-3-3-3c2,0,3-1,3-3C38.4,22.6,39.4,23.6,41.4,23.6z"/>
</g>
<g>
	<path fill="#263238" d="M28.8,8.9c-2,0-3,1-3,3c0-2-1-3-3-3c2,0,3-1,3-3C25.8,7.9,26.8,8.9,28.8,8.9z"/>
</g>
</svg>
